<?xml version="1.0" encoding="utf-8"?>
<svg viewBox="-0.5 -0.5 151 211" style="width:100%; height:100%; max-height:315px; max-width:151.5px" xmlns="http://www.w3.org/2000/svg">
<style> g rect { height:30px; width:30px; fill:rgb(255,255,255); stroke-width:1; stroke:rgb(0,0,0); } .cx-c { font-size:12px; font-family:monospace; pointer-events:none; font-weight:bold; } .cx-a { font-size:22px; font-family:monospace; text-anchor:middle; pointer-events:none; } </style>
<g id="cx-0-0">
<rect x="0" y="0" width="30" height="30"></rect>
<text class="cx-c" x="2" y="10">1</text>
<text class="cx-a" x="15" y="21"></text>
</g>
<g id="cx-0-1">
<rect x="30" y="0" width="30" height="30"></rect>
<text class="cx-a" x="45" y="21"></text>
</g>
<g id="cx-0-2">
<rect x="60" y="0" width="30" height="30"></rect>
<text class="cx-a" x="75" y="21"></text>
</g>
<g id="cx-0-3">
<rect x="90" y="0" width="30" height="30"></rect>
<text class="cx-a" x="105" y="21"></text>
</g>
<g id="cx-1-0">
<rect x="0" y="30" width="30" height="30"></rect>
<text class="cx-a" x="15" y="51"></text>
</g>
<g id="cx-2-0">
<rect x="0" y="60" width="30" height="30"></rect>
<text class="cx-a" x="15" y="81"></text>
</g>
<g id="cx-2-2">
<rect x="60" y="60" width="30" height="30"></rect>
<text class="cx-c" x="62" y="70">2</text>
<text class="cx-a" x="75" y="81"></text>
</g>
<g id="cx-3-0">
<rect x="0" y="90" width="30" height="30"></rect>
<text class="cx-c" x="2" y="100">3</text>
<text class="cx-a" x="15" y="111"></text>
</g>
<g id="cx-3-1">
<rect x="30" y="90" width="30" height="30"></rect>
<text class="cx-a" x="45" y="111"></text>
</g>
<g id="cx-3-2">
<rect x="60" y="90" width="30" height="30"></rect>
<text class="cx-a" x="75" y="111"></text>
</g>
<g id="cx-3-3">
<rect x="90" y="90" width="30" height="30"></rect>
<text class="cx-a" x="105" y="111"></text>
</g>
<g id="cx-4-2">
<rect x="60" y="120" width="30" height="30"></rect>
<text class="cx-a" x="75" y="141"></text>
</g>
<g id="cx-5-2">
<rect x="60" y="150" width="30" height="30"></rect>
<text class="cx-a" x="75" y="171"></text>
</g>
<g id="cx-6-2">
<rect x="60" y="180" width="30" height="30"></rect>
<text class="cx-c" x="62" y="190">4</text>
<text class="cx-a" x="75" y="201"></text>
</g>
<g id="cx-6-3">
<rect x="90" y="180" width="30" height="30"></rect>
<text class="cx-a" x="105" y="201"></text>
</g>
<g id="cx-6-4">
<rect x="120" y="180" width="30" height="30"></rect>
<text class="cx-a" x="135" y="201"></text>
</g>
</svg>
